# xmcd
#
# Track frame offsets: 
#        150
#        14633
#        36510
#        57798
#        86338
#
# Disc length: 1332 seconds
#
# Revision: 18
# Processed by: cddbd v1.5.2PL0 Copyright (c) Steve Scherf et al.
# Submitted via: ExactAudioCopyFreeDBPlugin 1.0
#
DISCID=39053205
DTITLE=Rednex - Cotton Eye Joe
DYEAR=1994
DGENRE=Country
TTITLE0=Cotton Eye Joe (Original Single Version)
TTITLE1=Cotton Eye Joe (Madcow Mix)
TTITLE2=Cotton Eye Joe (Madcow Instrumental)
TTITLE3=Cotton Eye Joe (Overworked Mix)
TTITLE4=Cotton Eye Joe (Original Instrumental)
EXTD=YEAR: 1994
EXTT0=
EXTT1=
EXTT2=
EXTT3=
EXTT4=
PLAYORDER=
